<svg width="57" height="28" viewBox="0 0 57 28" fill="none" xmlns="http://www.w3.org/2000/svg">
<path d="M31.9851 6.46772C31.8422 9.61913 29.6709 13.9343 25.4566 19.4131C21.1067 25.1377 17.4282 28 14.414 28C12.5498 28 10.9712 26.258 9.67838 22.7741C7.16415 13.4355 6.09274 7.96392 4.01421 7.96392C3.77136 7.96392 2.93566 8.47711 1.49997 9.48903L0 7.52301C3.68564 4.24871 7.207 0.605787 9.4141 0.403402C11.9069 0.157649 13.4355 1.88515 14.014 5.57144C16.064 18.6903 16.9711 20.6708 20.6996 14.7293C22.0353 12.5899 22.7567 10.9635 22.8567 9.8432C23.1996 6.52554 20.2996 6.74961 18.3354 7.60252C19.9068 2.39111 22.9138 -0.1387 27.3495 0.00586042C30.6208 0.0925967 32.1708 2.25378 31.9851 6.46772Z" fill="white"/>
<path d="M36.952 10.564C36.944 10.324 36.828 10.044 36.604 9.724C36.468 9.516 36.344 9.328 36.232 9.16C36.128 8.992 36.044 8.84 35.98 8.704C36.044 8.712 36.08 8.692 36.088 8.644C36.096 8.588 36.068 8.552 36.004 8.536L35.572 6.484L35.776 4.096C35.784 4.056 35.796 3.984 35.812 3.88C35.828 3.768 35.844 3.66 35.86 3.556L35.824 3.544C35.84 3.416 35.876 3.292 35.932 3.172C35.988 3.044 36.056 2.912 36.136 2.776C36.312 2.512 36.416 2.292 36.448 2.116C36.464 2.052 36.512 1.944 36.592 1.792C36.68 1.64 36.816 1.44 37 1.192C37.072 1.088 37.136 1 37.192 0.927999C37.248 0.848 37.296 0.779999 37.336 0.723999L37.636 0.495999C37.668 0.504 37.716 0.512 37.78 0.52C37.852 0.528 37.924 0.539999 37.996 0.555999C38.076 0.564 38.152 0.576 38.224 0.592C38.296 0.599999 38.352 0.612 38.392 0.628C38.408 0.708 38.328 0.888 38.152 1.168C37.96 1.464 37.872 1.632 37.888 1.672C37.872 1.72 37.86 1.76 37.852 1.792C37.836 1.832 37.82 1.884 37.804 1.948C37.788 2.004 37.768 2.068 37.744 2.14C37.704 2.292 37.672 2.412 37.648 2.5C37.632 2.588 37.62 2.648 37.612 2.68L37.408 3.004C37.28 3.204 37.208 3.428 37.192 3.676L37.036 6.4C37.044 6.456 37.08 6.716 37.144 7.18C37.176 7.412 37.228 7.632 37.3 7.84C37.372 8.048 37.46 8.248 37.564 8.44L37.432 8.608L37.624 9.328C37.616 9.432 37.7 9.628 37.876 9.916C37.972 10.076 38.04 10.204 38.08 10.3L37.816 10.744L37.144 10.732L36.952 10.564ZM39.8727 8.608L41.2407 8.404L42.5487 8.02L42.8607 7.516L42.7287 7L42.4167 6.616C42.3287 6.56 42.2367 6.508 42.1407 6.46C42.0527 6.404 41.9607 6.364 41.8647 6.34C41.7767 6.308 41.6847 6.296 41.5887 6.304C41.5007 6.304 41.4127 6.332 41.3247 6.388L41.0247 6.604L40.0287 6.136L39.6687 5.212L39.9807 3.664L40.5327 2.932C40.5567 2.988 40.6047 3.008 40.6767 2.992C40.7487 2.976 40.8207 2.944 40.8927 2.896C40.9647 2.848 41.0247 2.792 41.0727 2.728C41.1207 2.656 41.1327 2.592 41.1087 2.536C41.2447 2.496 41.4007 2.456 41.5767 2.416C41.7527 2.368 41.9047 2.3 42.0327 2.212L43.5807 1.888L43.8327 1.864L44.0487 2.116L43.8567 2.632L43.4127 2.752L42.8367 2.812L41.9607 3.256L41.5527 3.784C41.4247 3.904 41.3607 4.036 41.3607 4.18C41.3687 4.316 41.4047 4.464 41.4687 4.624C41.5567 4.808 41.6207 4.928 41.6607 4.984C41.7087 5.032 41.7687 5.076 41.8407 5.116L42.5487 5.356C42.6287 5.42 42.7007 5.472 42.7647 5.512C42.8367 5.544 42.9167 5.564 43.0047 5.572C43.0927 5.58 43.2167 5.588 43.3767 5.596C43.5447 5.604 43.7567 5.616 44.0127 5.632C44.0847 5.768 44.1687 5.888 44.2647 5.992C44.3607 6.088 44.4527 6.216 44.5407 6.376L44.7807 6.916L44.4207 8.116L44.1327 8.428L43.5447 9.28H43.2447C43.1407 9.28 43.0127 9.284 42.8607 9.292C42.7167 9.292 42.5447 9.292 42.3447 9.292C42.1447 9.292 41.9687 9.312 41.8167 9.352C41.6647 9.392 41.5287 9.436 41.4087 9.484C41.2887 9.524 41.1847 9.56 41.0967 9.592C41.0087 9.624 40.9287 9.636 40.8567 9.628L40.4247 9.496L39.7047 9.616L39.4527 9.1L39.5247 8.8L39.8727 8.608ZM46.4006 1.78C46.4646 1.764 46.5366 1.748 46.6166 1.732C46.6966 1.708 46.7806 1.684 46.8686 1.66C47.0286 1.628 47.1406 1.6 47.2046 1.576C47.2686 1.544 47.3406 1.524 47.4206 1.516C47.5086 1.5 47.5806 1.492 47.6366 1.492C47.7006 1.484 47.7886 1.48 47.9006 1.48C47.9086 1.512 47.9206 1.548 47.9366 1.588C47.9606 1.62 47.9726 1.656 47.9726 1.696C48.0606 1.888 48.1446 1.996 48.2246 2.02C48.3046 2.044 48.3766 2.032 48.4406 1.984C48.5046 1.936 48.5566 1.876 48.5966 1.804C48.6446 1.732 48.6766 1.696 48.6926 1.696H49.6766L50.7326 2.428C50.7966 2.468 50.8646 2.52 50.9366 2.584C51.0086 2.648 51.0886 2.724 51.1766 2.812C51.3446 2.988 51.4566 3.072 51.5126 3.064L51.4406 3.64C51.4406 3.648 51.4526 3.656 51.4766 3.664C51.5006 3.672 51.5246 3.696 51.5486 3.736C51.5806 3.768 51.6046 3.82 51.6206 3.892C51.6446 3.964 51.6486 4.068 51.6326 4.204C51.6086 4.484 51.6086 4.732 51.6326 4.948C51.6566 5.164 51.6686 5.34 51.6686 5.476C51.6686 5.484 51.5846 5.528 51.4166 5.608C51.2486 5.672 51.1646 5.792 51.1646 5.968C51.1246 5.96 51.0166 5.964 50.8406 5.98C50.6726 5.988 50.5006 6.032 50.3246 6.112L49.8086 6.316H49.0766C48.9246 6.316 48.7926 6.336 48.6806 6.376C48.5686 6.408 48.4766 6.444 48.4046 6.484C48.3326 6.524 48.2766 6.564 48.2366 6.604C48.1966 6.636 48.1086 6.652 47.9726 6.652C47.9886 6.74 48.0046 6.8 48.0206 6.832C47.9966 6.904 47.9606 6.996 47.9126 7.108C47.8726 7.212 47.8526 7.284 47.8526 7.324C47.8526 7.372 47.8526 7.44 47.8526 7.528C47.8606 7.616 47.8686 7.728 47.8766 7.864C47.8846 8.008 47.8526 8.128 47.7806 8.224C47.7086 8.312 47.6726 8.384 47.6726 8.44C47.6966 8.544 47.7166 8.66 47.7326 8.788C47.7566 8.908 47.7806 9.028 47.8046 9.148L47.6246 9.496C47.6086 9.504 47.5926 9.508 47.5766 9.508C47.5686 9.508 47.5566 9.512 47.5406 9.52C47.3646 9.576 47.2286 9.604 47.1326 9.604C47.1166 9.604 47.0846 9.604 47.0366 9.604C46.9966 9.596 46.9486 9.588 46.8926 9.58C46.8366 9.572 46.7846 9.568 46.7366 9.568C46.6886 9.56 46.6566 9.556 46.6406 9.556C46.6246 9.556 46.5886 9.576 46.5326 9.616C46.4846 9.656 46.4286 9.692 46.3646 9.724L46.0766 9.604C46.0606 9.476 46.0526 9.332 46.0526 9.172C46.0606 9.012 46.0566 8.876 46.0406 8.764C46.0646 8.732 46.0966 8.668 46.1366 8.572C46.1766 8.468 46.1886 8.328 46.1726 8.152C46.1566 7.968 46.1606 7.82 46.1846 7.708C46.2086 7.596 46.2206 7.508 46.2206 7.444C46.2206 7.42 46.2086 7.356 46.1846 7.252C46.1686 7.14 46.1646 7.052 46.1726 6.988C46.1806 6.964 46.2006 6.932 46.2326 6.892C46.2646 6.852 46.2806 6.8 46.2806 6.736C46.2726 6.48 46.2686 6.276 46.2686 6.124C46.2686 5.972 46.2526 5.816 46.2206 5.656C46.2126 5.624 46.2166 5.592 46.2326 5.56C46.2566 5.52 46.2686 5.468 46.2686 5.404C46.2686 5.34 46.2926 5.192 46.3406 4.96C46.3966 4.72 46.4006 4.388 46.3526 3.964C46.3126 3.548 46.2806 3.224 46.2566 2.992C46.2326 2.76 46.2246 2.62 46.2326 2.572C46.2486 2.484 46.2526 2.416 46.2446 2.368C46.2366 2.32 46.2326 2.248 46.2326 2.152L46.4006 1.78ZM49.6766 5.536C49.6766 5.496 49.7566 5.396 49.9166 5.236C50.0846 5.084 50.1686 4.98 50.1686 4.924L50.0126 3.832L49.9166 3.46L48.8846 2.308H48.4286L48.1886 2.26L48.0926 2.308C48.0766 2.356 48.0686 2.632 48.0686 3.136C48.0766 3.664 48.0766 3.964 48.0686 4.036C47.9086 4.124 47.8606 4.304 47.9246 4.576C47.9966 4.84 47.9926 5.048 47.9126 5.2C47.8886 5.224 47.8766 5.26 47.8766 5.308C47.8766 5.42 47.8766 5.504 47.8766 5.56C47.8846 5.608 47.8806 5.684 47.8646 5.788C47.8646 5.796 47.8686 5.82 47.8766 5.86C47.8926 5.9 47.9046 5.96 47.9126 6.04L48.3806 5.908C48.3806 5.988 48.5366 5.948 48.8486 5.788C49.0086 5.7 49.1326 5.636 49.2206 5.596C49.3086 5.556 49.3606 5.536 49.3766 5.536H49.6766ZM54.1326 10.732L53.4606 10.744L53.1966 10.3C53.2366 10.204 53.3046 10.076 53.4006 9.916C53.5766 9.628 53.6606 9.432 53.6526 9.328L53.8446 8.608L53.7126 8.44C53.8166 8.248 53.9046 8.048 53.9766 7.84C54.0486 7.632 54.1006 7.412 54.1326 7.18C54.1966 6.716 54.2326 6.456 54.2406 6.4L54.0846 3.676C54.0686 3.428 53.9966 3.204 53.8686 3.004L53.6646 2.68C53.6566 2.648 53.6406 2.588 53.6166 2.5C53.6006 2.412 53.5726 2.292 53.5326 2.14C53.5006 2.068 53.4766 2.004 53.4606 1.948C53.4526 1.884 53.4406 1.832 53.4246 1.792C53.4166 1.76 53.4046 1.72 53.3886 1.672C53.4046 1.632 53.3166 1.464 53.1246 1.168C52.9486 0.888 52.8686 0.708 52.8846 0.628C52.9166 0.612 52.9686 0.599999 53.0406 0.592C53.1126 0.576 53.1886 0.564 53.2686 0.555999C53.3486 0.539999 53.4206 0.528 53.4846 0.52C53.5566 0.512 53.6086 0.504 53.6406 0.495999L53.9406 0.723999C53.9806 0.779999 54.0286 0.848 54.0846 0.927999C54.1406 1 54.2046 1.088 54.2766 1.192C54.4606 1.44 54.5926 1.64 54.6726 1.792C54.7606 1.944 54.8126 2.052 54.8286 2.116C54.8606 2.292 54.9646 2.512 55.1406 2.776C55.2206 2.912 55.2886 3.044 55.3446 3.172C55.4006 3.292 55.4366 3.416 55.4526 3.544L55.4166 3.556C55.4326 3.66 55.4486 3.768 55.4646 3.88C55.4806 3.984 55.4926 4.056 55.5006 4.096L55.7046 6.484L55.2726 8.536C55.2086 8.552 55.1806 8.588 55.1886 8.644C55.1966 8.692 55.2326 8.712 55.2966 8.704C55.2326 8.84 55.1446 8.992 55.0326 9.16C54.9286 9.328 54.8086 9.516 54.6726 9.724C54.4486 10.044 54.3326 10.324 54.3246 10.564L54.1326 10.732Z" fill="white"/>
</svg>
