<svg width="75" height="32" viewBox="0 0 75 32" fill="none" xmlns="http://www.w3.org/2000/svg">
<path d="M31.9851 6.46772C31.8422 9.61913 29.6709 13.9343 25.4566 19.4131C21.1067 25.1377 17.4282 28 14.414 28C12.5498 28 10.9712 26.258 9.67838 22.7741C7.16415 13.4355 6.09274 7.96392 4.01421 7.96392C3.77136 7.96392 2.93566 8.47711 1.49997 9.48903L0 7.52301C3.68564 4.24871 7.207 0.605787 9.4141 0.403402C11.9069 0.157649 13.4355 1.88515 14.014 5.57144C16.064 18.6903 16.9711 20.6708 20.6996 14.7293C22.0353 12.5899 22.7567 10.9635 22.8567 9.8432C23.1996 6.52554 20.2996 6.74961 18.3354 7.60252C19.9068 2.39111 22.9138 -0.1387 27.3495 0.00586042C30.6208 0.0925967 32.1708 2.25378 31.9851 6.46772Z" fill="white"/>
<path d="M34.904 28.128C34.888 27.648 34.656 27.088 34.208 26.448C33.936 26.032 33.688 25.656 33.464 25.32C33.256 24.984 33.088 24.68 32.96 24.408C33.088 24.424 33.16 24.384 33.176 24.288C33.192 24.176 33.136 24.104 33.008 24.072L32.144 19.968L32.552 15.192C32.568 15.112 32.592 14.968 32.624 14.76C32.656 14.536 32.688 14.32 32.72 14.112L32.648 14.088C32.68 13.832 32.752 13.584 32.864 13.344C32.976 13.088 33.112 12.824 33.272 12.552C33.624 12.024 33.832 11.584 33.896 11.232C33.928 11.104 34.024 10.888 34.184 10.584C34.36 10.28 34.632 9.88 35 9.384C35.144 9.176 35.272 9 35.384 8.856C35.496 8.696 35.592 8.56 35.672 8.448L36.272 7.992C36.336 8.008 36.432 8.024 36.56 8.04C36.704 8.056 36.848 8.08 36.992 8.112C37.152 8.128 37.304 8.152 37.448 8.184C37.592 8.2 37.704 8.224 37.784 8.256C37.816 8.416 37.656 8.776 37.304 9.336C36.92 9.928 36.744 10.264 36.776 10.344C36.744 10.44 36.72 10.52 36.704 10.584C36.672 10.664 36.64 10.768 36.608 10.896C36.576 11.008 36.536 11.136 36.488 11.28C36.408 11.584 36.344 11.824 36.296 12C36.264 12.176 36.24 12.296 36.224 12.36L35.816 13.008C35.56 13.408 35.416 13.856 35.384 14.352L35.072 19.8C35.088 19.912 35.16 20.432 35.288 21.36C35.352 21.824 35.456 22.264 35.6 22.68C35.744 23.096 35.92 23.496 36.128 23.88L35.864 24.216L36.248 25.656C36.232 25.864 36.4 26.256 36.752 26.832C36.944 27.152 37.08 27.408 37.16 27.6L36.632 28.488L35.288 28.464L34.904 28.128ZM40.7454 24.216L43.4814 23.808L46.0974 23.04L46.7214 22.032L46.4574 21L45.8334 20.232C45.6574 20.12 45.4734 20.016 45.2814 19.92C45.1054 19.808 44.9214 19.728 44.7294 19.68C44.5534 19.616 44.3694 19.592 44.1774 19.608C44.0014 19.608 43.8254 19.664 43.6494 19.776L43.0494 20.208L41.0574 19.272L40.3374 17.424L40.9614 14.328L42.0654 12.864C42.1134 12.976 42.2094 13.016 42.3534 12.984C42.4974 12.952 42.6414 12.888 42.7854 12.792C42.9294 12.696 43.0494 12.584 43.1454 12.456C43.2414 12.312 43.2654 12.184 43.2174 12.072C43.4894 11.992 43.8014 11.912 44.1534 11.832C44.5054 11.736 44.8094 11.6 45.0654 11.424L48.1614 10.776L48.6654 10.728L49.0974 11.232L48.7134 12.264L47.8254 12.504L46.6734 12.624L44.9214 13.512L44.1054 14.568C43.8494 14.808 43.7214 15.072 43.7214 15.36C43.7374 15.632 43.8094 15.928 43.9374 16.248C44.1134 16.616 44.2414 16.856 44.3214 16.968C44.4174 17.064 44.5374 17.152 44.6814 17.232L46.0974 17.712C46.2574 17.84 46.4014 17.944 46.5294 18.024C46.6734 18.088 46.8334 18.128 47.0094 18.144C47.1854 18.16 47.4334 18.176 47.7534 18.192C48.0894 18.208 48.5134 18.232 49.0254 18.264C49.1694 18.536 49.3374 18.776 49.5294 18.984C49.7214 19.176 49.9054 19.432 50.0814 19.752L50.5614 20.832L49.8414 23.232L49.2654 23.856L48.0894 25.56H47.4894C47.2814 25.56 47.0254 25.568 46.7214 25.584C46.4334 25.584 46.0894 25.584 45.6894 25.584C45.2894 25.584 44.9374 25.624 44.6334 25.704C44.3294 25.784 44.0574 25.872 43.8174 25.968C43.5774 26.048 43.3694 26.12 43.1934 26.184C43.0174 26.248 42.8574 26.272 42.7134 26.256L41.8494 25.992L40.4094 26.232L39.9054 25.2L40.0494 24.6L40.7454 24.216ZM53.8012 10.56C53.9292 10.528 54.0732 10.496 54.2332 10.464C54.3932 10.416 54.5612 10.368 54.7372 10.32C55.0572 10.256 55.2812 10.2 55.4092 10.152C55.5372 10.088 55.6812 10.048 55.8412 10.032C56.0172 10 56.1612 9.984 56.2732 9.984C56.4012 9.968 56.5772 9.96 56.8012 9.96C56.8172 10.024 56.8412 10.096 56.8732 10.176C56.9212 10.24 56.9452 10.312 56.9452 10.392C57.1212 10.776 57.2892 10.992 57.4492 11.04C57.6092 11.088 57.7532 11.064 57.8812 10.968C58.0092 10.872 58.1132 10.752 58.1932 10.608C58.2892 10.464 58.3532 10.392 58.3852 10.392H60.3532L62.4652 11.856C62.5932 11.936 62.7292 12.04 62.8732 12.168C63.0172 12.296 63.1772 12.448 63.3532 12.624C63.6892 12.976 63.9132 13.144 64.0252 13.128L63.8812 14.28C63.8812 14.296 63.9052 14.312 63.9532 14.328C64.0012 14.344 64.0492 14.392 64.0972 14.472C64.1612 14.536 64.2092 14.64 64.2412 14.784C64.2892 14.928 64.2972 15.136 64.2652 15.408C64.2172 15.968 64.2172 16.464 64.2652 16.896C64.3132 17.328 64.3372 17.68 64.3372 17.952C64.3372 17.968 64.1692 18.056 63.8332 18.216C63.4972 18.344 63.3292 18.584 63.3292 18.936C63.2492 18.92 63.0332 18.928 62.6812 18.96C62.3452 18.976 62.0012 19.064 61.6492 19.224L60.6172 19.632H59.1532C58.8492 19.632 58.5852 19.672 58.3612 19.752C58.1372 19.816 57.9532 19.888 57.8092 19.968C57.6652 20.048 57.5532 20.128 57.4732 20.208C57.3932 20.272 57.2172 20.304 56.9452 20.304C56.9772 20.48 57.0092 20.6 57.0412 20.664C56.9932 20.808 56.9212 20.992 56.8252 21.216C56.7452 21.424 56.7052 21.568 56.7052 21.648C56.7052 21.744 56.7052 21.88 56.7052 22.056C56.7212 22.232 56.7372 22.456 56.7532 22.728C56.7692 23.016 56.7052 23.256 56.5612 23.448C56.4172 23.624 56.3452 23.768 56.3452 23.88C56.3932 24.088 56.4332 24.32 56.4652 24.576C56.5132 24.816 56.5612 25.056 56.6092 25.296L56.2492 25.992C56.2172 26.008 56.1852 26.016 56.1532 26.016C56.1372 26.016 56.1132 26.024 56.0812 26.04C55.7292 26.152 55.4572 26.208 55.2652 26.208C55.2332 26.208 55.1692 26.208 55.0732 26.208C54.9932 26.192 54.8972 26.176 54.7852 26.16C54.6732 26.144 54.5692 26.136 54.4732 26.136C54.3772 26.12 54.3132 26.112 54.2812 26.112C54.2492 26.112 54.1772 26.152 54.0652 26.232C53.9692 26.312 53.8572 26.384 53.7292 26.448L53.1532 26.208C53.1212 25.952 53.1052 25.664 53.1052 25.344C53.1212 25.024 53.1132 24.752 53.0812 24.528C53.1292 24.464 53.1932 24.336 53.2732 24.144C53.3532 23.936 53.3772 23.656 53.3452 23.304C53.3132 22.936 53.3212 22.64 53.3692 22.416C53.4172 22.192 53.4412 22.016 53.4412 21.888C53.4412 21.84 53.4172 21.712 53.3692 21.504C53.3372 21.28 53.3292 21.104 53.3452 20.976C53.3612 20.928 53.4012 20.864 53.4652 20.784C53.5292 20.704 53.5612 20.6 53.5612 20.472C53.5452 19.96 53.5372 19.552 53.5372 19.248C53.5372 18.944 53.5052 18.632 53.4412 18.312C53.4252 18.248 53.4332 18.184 53.4652 18.12C53.5132 18.04 53.5372 17.936 53.5372 17.808C53.5372 17.68 53.5852 17.384 53.6812 16.92C53.7932 16.44 53.8012 15.776 53.7052 14.928C53.6252 14.096 53.5612 13.448 53.5132 12.984C53.4652 12.52 53.4492 12.24 53.4652 12.144C53.4972 11.968 53.5052 11.832 53.4892 11.736C53.4732 11.64 53.4652 11.496 53.4652 11.304L53.8012 10.56ZM60.3532 18.072C60.3532 17.992 60.5132 17.792 60.8332 17.472C61.1692 17.168 61.3372 16.96 61.3372 16.848L61.0252 14.664L60.8332 13.92L58.7692 11.616H57.8572L57.3772 11.52L57.1852 11.616C57.1532 11.712 57.1372 12.264 57.1372 13.272C57.1532 14.328 57.1532 14.928 57.1372 15.072C56.8172 15.248 56.7212 15.608 56.8492 16.152C56.9932 16.68 56.9852 17.096 56.8252 17.4C56.7772 17.448 56.7532 17.52 56.7532 17.616C56.7532 17.84 56.7532 18.008 56.7532 18.12C56.7692 18.216 56.7612 18.368 56.7292 18.576C56.7292 18.592 56.7372 18.64 56.7532 18.72C56.7852 18.8 56.8092 18.92 56.8252 19.08L57.7612 18.816C57.7612 18.976 58.0732 18.896 58.6972 18.576C59.0172 18.4 59.2652 18.272 59.4412 18.192C59.6172 18.112 59.7212 18.072 59.7532 18.072H60.3532ZM69.2653 28.464L67.9213 28.488L67.3933 27.6C67.4733 27.408 67.6093 27.152 67.8013 26.832C68.1533 26.256 68.3213 25.864 68.3053 25.656L68.6893 24.216L68.4253 23.88C68.6333 23.496 68.8093 23.096 68.9533 22.68C69.0973 22.264 69.2013 21.824 69.2653 21.36C69.3933 20.432 69.4653 19.912 69.4813 19.8L69.1693 14.352C69.1373 13.856 68.9933 13.408 68.7373 13.008L68.3293 12.36C68.3133 12.296 68.2813 12.176 68.2333 12C68.2013 11.824 68.1453 11.584 68.0653 11.28C68.0013 11.136 67.9533 11.008 67.9213 10.896C67.9053 10.768 67.8813 10.664 67.8493 10.584C67.8333 10.52 67.8093 10.44 67.7773 10.344C67.8093 10.264 67.6333 9.928 67.2493 9.336C66.8973 8.776 66.7373 8.416 66.7693 8.256C66.8333 8.224 66.9373 8.2 67.0813 8.184C67.2253 8.152 67.3773 8.128 67.5373 8.112C67.6973 8.08 67.8413 8.056 67.9693 8.04C68.1133 8.024 68.2173 8.008 68.2812 7.992L68.8813 8.448C68.9613 8.56 69.0573 8.696 69.1693 8.856C69.2813 9 69.4093 9.176 69.5533 9.384C69.9213 9.88 70.1853 10.28 70.3453 10.584C70.5213 10.888 70.6253 11.104 70.6573 11.232C70.7213 11.584 70.9293 12.024 71.2812 12.552C71.4413 12.824 71.5773 13.088 71.6893 13.344C71.8013 13.584 71.8733 13.832 71.9053 14.088L71.8333 14.112C71.8653 14.32 71.8973 14.536 71.9293 14.76C71.9613 14.968 71.9853 15.112 72.0013 15.192L72.4093 19.968L71.5453 24.072C71.4173 24.104 71.3613 24.176 71.3773 24.288C71.3933 24.384 71.4653 24.424 71.5933 24.408C71.4653 24.68 71.2893 24.984 71.0653 25.32C70.8573 25.656 70.6173 26.032 70.3453 26.448C69.8973 27.088 69.6653 27.648 69.6493 28.128L69.2653 28.464Z" fill="white"/>
</svg>
