<svg width="60" height="28" viewBox="0 0 60 28" fill="none" xmlns="http://www.w3.org/2000/svg">
<path d="M31.9851 6.46772C31.8422 9.61913 29.6709 13.9343 25.4566 19.4131C21.1067 25.1377 17.4282 28 14.414 28C12.5498 28 10.9712 26.258 9.67838 22.7741C7.16415 13.4355 6.09274 7.96392 4.01421 7.96392C3.77136 7.96392 2.93566 8.47711 1.49997 9.48903L0 7.52301C3.68564 4.24871 7.207 0.605786 9.4141 0.403402C11.9069 0.157649 13.4355 1.88515 14.014 5.57144C16.064 18.6903 16.9711 20.6708 20.6996 14.7293C22.0353 12.5899 22.7567 10.9635 22.8567 9.8432C23.1996 6.52554 20.2996 6.74961 18.3354 7.60252C19.9068 2.39111 22.9138 -0.1387 27.3495 0.00586042C30.6208 0.0925967 32.1708 2.25378 31.9851 6.46772Z" fill="#32BCE0"/>
<path d="M36.952 10.564C36.944 10.324 36.828 10.044 36.604 9.724C36.468 9.516 36.344 9.328 36.232 9.16C36.128 8.992 36.044 8.84 35.98 8.704C36.044 8.712 36.08 8.692 36.088 8.644C36.096 8.588 36.068 8.552 36.004 8.536L35.572 6.484L35.776 4.096C35.784 4.056 35.796 3.984 35.812 3.88C35.828 3.768 35.844 3.66 35.86 3.556L35.824 3.544C35.84 3.416 35.876 3.292 35.932 3.172C35.988 3.044 36.056 2.912 36.136 2.776C36.312 2.512 36.416 2.292 36.448 2.116C36.464 2.052 36.512 1.944 36.592 1.792C36.68 1.64 36.816 1.44 37 1.192C37.072 1.088 37.136 1 37.192 0.927999C37.248 0.848 37.296 0.779999 37.336 0.723999L37.636 0.495999C37.668 0.504 37.716 0.512 37.78 0.52C37.852 0.528 37.924 0.539999 37.996 0.555999C38.076 0.564 38.152 0.576 38.224 0.592C38.296 0.599999 38.352 0.612 38.392 0.628C38.408 0.708 38.328 0.888 38.152 1.168C37.96 1.464 37.872 1.632 37.888 1.672C37.872 1.72 37.86 1.76 37.852 1.792C37.836 1.832 37.82 1.884 37.804 1.948C37.788 2.004 37.768 2.068 37.744 2.14C37.704 2.292 37.672 2.412 37.648 2.5C37.632 2.588 37.62 2.648 37.612 2.68L37.408 3.004C37.28 3.204 37.208 3.428 37.192 3.676L37.036 6.4C37.044 6.456 37.08 6.716 37.144 7.18C37.176 7.412 37.228 7.632 37.3 7.84C37.372 8.048 37.46 8.248 37.564 8.44L37.432 8.608L37.624 9.328C37.616 9.432 37.7 9.628 37.876 9.916C37.972 10.076 38.04 10.204 38.08 10.3L37.816 10.744L37.144 10.732L36.952 10.564ZM43.3407 7.36C43.3727 7.344 43.3967 7.308 43.4127 7.252C43.4287 7.188 43.4407 7.12 43.4487 7.048C43.4647 6.976 43.4767 6.904 43.4847 6.832C43.5007 6.752 43.5247 6.688 43.5567 6.64C43.6527 6.496 43.7327 6.376 43.7967 6.28C43.8687 6.176 43.9287 6.092 43.9767 6.028C44.0327 5.956 44.0767 5.9 44.1087 5.86C44.1407 5.812 44.1647 5.764 44.1807 5.716C44.2847 5.636 44.3407 5.564 44.3487 5.5C44.3647 5.436 44.4007 5.348 44.4567 5.236C44.4967 5.156 44.5407 5.052 44.5887 4.924C44.6367 4.788 44.6647 4.708 44.6727 4.684C44.6967 4.612 44.7367 4.532 44.7927 4.444C44.8567 4.348 44.9167 4.248 44.9727 4.144C45.0367 4.032 45.0927 3.916 45.1407 3.796C45.1887 3.668 45.2127 3.536 45.2127 3.4C45.2207 3.224 45.2247 3.072 45.2247 2.944C45.2327 2.808 45.2447 2.692 45.2607 2.596L45.6327 2.512L46.0527 2.704C46.0527 2.832 46.0927 2.944 46.1727 3.04C46.2607 3.128 46.3087 3.208 46.3167 3.28C46.3167 3.344 46.2687 3.456 46.1727 3.616C46.0767 3.768 46.0047 3.956 45.9567 4.18C45.9487 4.244 45.9007 4.328 45.8127 4.432C45.7247 4.528 45.6767 4.644 45.6687 4.78C45.6687 4.916 45.6407 5.056 45.5847 5.2C45.5287 5.336 45.4887 5.432 45.4647 5.488C45.3927 5.664 45.2847 5.9 45.1407 6.196C45.0047 6.492 44.8327 6.856 44.6247 7.288C44.4167 7.72 44.2447 8.056 44.1087 8.296C43.9727 8.536 43.8927 8.684 43.8687 8.74L43.7727 8.956L43.6767 9.148L43.2087 9.472L42.4287 9.484L42.1887 9.604L41.7567 9.112C41.7087 8.992 41.6367 8.86 41.5407 8.716C41.4527 8.572 41.3687 8.404 41.2887 8.212L41.0127 7.504C41.0847 7.336 41.1207 7.204 41.1207 7.108C41.1287 7.012 41.1127 6.94 41.0727 6.892C41.0327 6.844 40.9767 6.816 40.9047 6.808C40.8327 6.792 40.7567 6.78 40.6767 6.772C40.6287 6.764 40.5767 6.716 40.5207 6.628C40.4647 6.532 40.4087 6.468 40.3527 6.436L40.3287 6.16L40.0167 5.656L39.9207 4.624C39.9367 4.568 39.9287 4.524 39.8967 4.492C39.8727 4.46 39.8367 4.436 39.7887 4.42L39.6447 4.36C39.5887 4.336 39.5567 4.308 39.5487 4.276C39.4847 4.148 39.4327 4.032 39.3927 3.928C39.3607 3.816 39.3327 3.716 39.3087 3.628C39.2847 3.54 39.2567 3.46 39.2247 3.388C39.2007 3.316 39.1647 3.256 39.1167 3.208L39.1287 2.716C39.2247 2.66 39.3527 2.624 39.5127 2.608C39.6967 2.592 39.8367 2.528 39.9327 2.416L40.3287 2.296C40.4247 2.376 40.5207 2.448 40.6167 2.512C40.7127 2.576 40.7847 2.636 40.8327 2.692C40.9607 2.844 41.1287 2.968 41.3367 3.064C41.3447 3.104 41.3687 3.196 41.4087 3.34C41.4567 3.484 41.5087 3.656 41.5647 3.856C41.6287 4.056 41.7007 4.276 41.7807 4.516C41.8607 4.748 41.9367 4.976 42.0087 5.2C42.0887 5.424 42.1647 5.632 42.2367 5.824C42.3167 6.008 42.3847 6.156 42.4407 6.268C42.4647 6.316 42.4927 6.392 42.5247 6.496C42.5567 6.6 42.5887 6.708 42.6207 6.82C42.6527 6.924 42.6807 7.024 42.7047 7.12C42.7367 7.216 42.7607 7.28 42.7767 7.312C42.8327 7.312 42.8807 7.32 42.9207 7.336C42.9607 7.352 43.0007 7.368 43.0407 7.384C43.0807 7.4 43.1247 7.408 43.1727 7.408C43.2207 7.408 43.2767 7.392 43.3407 7.36ZM49.258 9.46L49.114 9.508C49.002 9.548 48.87 9.576 48.718 9.592C48.574 9.6 48.482 9.604 48.442 9.604C48.418 9.604 48.362 9.6 48.274 9.592C48.194 9.576 48.134 9.568 48.094 9.568C48.07 9.568 48.038 9.588 47.998 9.628L47.458 9.436C47.458 9.396 47.458 9.36 47.458 9.328C47.466 9.296 47.474 9.26 47.482 9.22C47.498 9.108 47.51 9.004 47.518 8.908C47.534 8.804 47.534 8.708 47.518 8.62C47.582 8.556 47.59 8.36 47.542 8.032C47.494 7.696 47.47 7.484 47.47 7.396C47.47 7.372 47.478 7.308 47.494 7.204C47.51 7.1 47.526 7.008 47.542 6.928C47.55 6.904 47.566 6.872 47.59 6.832C47.622 6.792 47.638 6.748 47.638 6.7C47.622 6.468 47.63 6.28 47.662 6.136C47.702 5.984 47.714 5.832 47.698 5.68C47.69 5.64 47.694 5.6 47.71 5.56C47.726 5.52 47.734 5.468 47.734 5.404V5.008C47.734 4.896 47.734 4.772 47.734 4.636C47.734 4.492 47.738 4.328 47.746 4.144C47.754 3.784 47.758 3.544 47.758 3.424C47.766 3.304 47.778 3.22 47.794 3.172C47.802 3.092 47.822 3.028 47.854 2.98C47.894 2.932 47.914 2.852 47.914 2.74C47.914 2.732 47.898 2.708 47.866 2.668C47.842 2.628 47.81 2.576 47.77 2.512C47.746 2.48 47.73 2.44 47.722 2.392C47.714 2.344 47.71 2.3 47.71 2.26C47.718 2.212 47.722 2.172 47.722 2.14C47.73 2.108 47.734 2.016 47.734 1.864C47.95 1.8 48.17 1.768 48.394 1.768C48.618 1.768 48.798 1.76 48.934 1.744C48.982 1.736 49.018 1.728 49.042 1.72C49.074 1.712 49.102 1.708 49.126 1.708C49.15 1.7 49.178 1.696 49.21 1.696C49.25 1.688 49.306 1.684 49.378 1.684C49.41 1.764 49.454 1.852 49.51 1.948C49.566 2.044 49.61 2.132 49.642 2.212C49.746 2.356 49.846 2.424 49.942 2.416C50.038 2.408 50.126 2.372 50.206 2.308C50.294 2.244 50.366 2.176 50.422 2.104C50.478 2.024 50.514 1.984 50.53 1.984L51.886 1.996L52.918 2.704C52.958 2.744 53.01 2.792 53.074 2.848C53.138 2.896 53.206 2.964 53.278 3.052C53.438 3.22 53.558 3.3 53.638 3.292L53.926 3.712C53.91 3.736 53.874 3.808 53.818 3.928C53.77 4.04 53.698 4.2 53.602 4.408C53.418 4.84 53.326 5.176 53.326 5.416L53.086 5.56C52.926 5.624 52.846 5.788 52.846 6.052C52.71 6.036 52.486 6.088 52.174 6.208C52.086 6.248 51.99 6.276 51.886 6.292C51.782 6.3 51.686 6.308 51.598 6.316C51.542 6.324 51.486 6.328 51.43 6.328C51.382 6.328 51.33 6.328 51.274 6.328L51.142 6.628C51.046 6.556 50.938 6.508 50.818 6.484C50.698 6.46 50.578 6.452 50.458 6.46C50.346 6.468 50.238 6.484 50.134 6.508C50.03 6.532 49.942 6.56 49.87 6.592C49.606 6.688 49.47 6.736 49.462 6.736H49.39C49.398 6.744 49.402 6.756 49.402 6.772C49.386 6.852 49.358 6.948 49.318 7.06C49.286 7.164 49.27 7.236 49.27 7.276C49.27 7.324 49.274 7.392 49.282 7.48C49.29 7.56 49.298 7.668 49.306 7.804C49.314 7.932 49.318 8.04 49.318 8.128C49.326 8.216 49.33 8.284 49.33 8.332L49.378 8.656C49.394 8.72 49.406 8.784 49.414 8.848C49.422 8.904 49.434 8.964 49.45 9.028L49.258 9.46ZM49.702 3.028C49.702 3.092 49.702 3.168 49.702 3.256C49.71 3.344 49.718 3.444 49.726 3.556C49.766 4.052 49.778 4.348 49.762 4.444C49.602 4.54 49.506 4.684 49.474 4.876C49.45 4.98 49.426 5.08 49.402 5.176C49.378 5.264 49.35 5.34 49.318 5.404L49.294 5.428C49.294 5.516 49.294 5.58 49.294 5.62C49.302 5.66 49.306 5.708 49.306 5.764L49.534 5.92L49.762 5.86C49.762 6.036 49.978 6.032 50.41 5.848C50.834 5.672 51.074 5.584 51.13 5.584H51.634C51.698 5.496 51.774 5.404 51.862 5.308C51.95 5.204 51.994 5.14 51.994 5.116L52.15 4.24L52.078 3.94L50.482 2.8H49.954L49.702 3.028ZM53.182 9.484C53.166 9.412 53.118 9.364 53.038 9.34C53.006 9.308 52.994 9.264 53.002 9.208C53.01 9.152 53.002 9.116 52.978 9.1C52.97 9.084 52.962 9.076 52.954 9.076C52.946 9.076 52.934 9.072 52.918 9.064C52.91 9.048 52.886 9.02 52.846 8.98C52.822 8.948 52.794 8.916 52.762 8.884C52.73 8.844 52.694 8.792 52.654 8.728C52.566 8.616 52.498 8.528 52.45 8.464C52.402 8.392 52.366 8.348 52.342 8.332C52.31 8.316 52.262 8.284 52.198 8.236C52.134 8.188 52.09 8.16 52.066 8.152C52.042 8.128 52.022 8.1 52.006 8.068C51.99 8.036 51.974 8.012 51.958 7.996C51.942 7.98 51.922 7.924 51.898 7.828C51.874 7.732 51.85 7.648 51.826 7.576C51.738 7.496 51.606 7.352 51.43 7.144C51.374 7.088 51.342 7.052 51.334 7.036L51.49 6.808L52.066 7.096C52.074 7.104 52.114 7.104 52.186 7.096C52.266 7.088 52.35 7.084 52.438 7.084C52.526 7.076 52.61 7.076 52.69 7.084C52.778 7.092 52.834 7.116 52.858 7.156C52.89 7.196 52.93 7.224 52.978 7.24C53.026 7.256 53.074 7.272 53.122 7.288C53.178 7.296 53.222 7.304 53.254 7.312C53.294 7.32 53.318 7.336 53.326 7.36L53.566 7.804C53.598 7.844 53.654 7.912 53.734 8.008C53.822 8.096 53.938 8.22 54.082 8.38C54.37 8.716 54.518 8.888 54.526 8.896L54.49 9.316L53.53 9.592L53.182 9.484ZM56.8865 10.732L56.2145 10.744L55.9505 10.3C55.9905 10.204 56.0585 10.076 56.1545 9.916C56.3305 9.628 56.4145 9.432 56.4065 9.328L56.5985 8.608L56.4665 8.44C56.5705 8.248 56.6585 8.048 56.7305 7.84C56.8025 7.632 56.8545 7.412 56.8865 7.18C56.9505 6.716 56.9865 6.456 56.9945 6.4L56.8385 3.676C56.8225 3.428 56.7505 3.204 56.6225 3.004L56.4185 2.68C56.4105 2.648 56.3945 2.588 56.3705 2.5C56.3545 2.412 56.3265 2.292 56.2865 2.14C56.2545 2.068 56.2305 2.004 56.2145 1.948C56.2065 1.884 56.1945 1.832 56.1785 1.792C56.1705 1.76 56.1585 1.72 56.1425 1.672C56.1585 1.632 56.0705 1.464 55.8785 1.168C55.7025 0.888 55.6225 0.708 55.6385 0.628C55.6705 0.612 55.7225 0.599999 55.7945 0.592C55.8665 0.576 55.9425 0.564 56.0225 0.555999C56.1025 0.539999 56.1745 0.528 56.2385 0.52C56.3105 0.512 56.3625 0.504 56.3945 0.495999L56.6945 0.723999C56.7345 0.779999 56.7825 0.848 56.8385 0.927999C56.8945 1 56.9585 1.088 57.0305 1.192C57.2145 1.44 57.3465 1.64 57.4265 1.792C57.5145 1.944 57.5665 2.052 57.5825 2.116C57.6145 2.292 57.7185 2.512 57.8945 2.776C57.9745 2.912 58.0425 3.044 58.0985 3.172C58.1545 3.292 58.1905 3.416 58.2065 3.544L58.1705 3.556C58.1865 3.66 58.2025 3.768 58.2185 3.88C58.2345 3.984 58.2465 4.056 58.2545 4.096L58.4585 6.484L58.0265 8.536C57.9625 8.552 57.9345 8.588 57.9425 8.644C57.9505 8.692 57.9865 8.712 58.0505 8.704C57.9865 8.84 57.8985 8.992 57.7865 9.16C57.6825 9.328 57.5625 9.516 57.4265 9.724C57.2025 10.044 57.0865 10.324 57.0785 10.564L56.8865 10.732Z" fill="#32BCE0"/>
</svg>
