<svg width="94" height="32" viewBox="0 0 94 32" fill="none" xmlns="http://www.w3.org/2000/svg">
<path d="M31.9851 6.46772C31.8422 9.61913 29.6709 13.9343 25.4566 19.4131C21.1067 25.1377 17.4282 28 14.414 28C12.5498 28 10.9712 26.258 9.67838 22.7741C7.16415 13.4355 6.09274 7.96392 4.01421 7.96392C3.77136 7.96392 2.93566 8.47711 1.49997 9.48903L0 7.52301C3.68564 4.24871 7.207 0.605787 9.4141 0.403402C11.9069 0.157649 13.4355 1.88515 14.014 5.57144C16.064 18.6903 16.9711 20.6708 20.6996 14.7293C22.0353 12.5899 22.7567 10.9635 22.8567 9.8432C23.1996 6.52554 20.2996 6.74961 18.3354 7.60252C19.9068 2.39111 22.9138 -0.1387 27.3495 0.00586042C30.6208 0.0925967 32.1708 2.25378 31.9851 6.46772Z" fill="white"/>
<path d="M39.872 27.504C39.8507 26.864 39.5413 26.1173 38.944 25.264C38.5813 24.7093 38.2507 24.208 37.952 23.76C37.6747 23.312 37.4507 22.9067 37.28 22.544C37.4507 22.5653 37.5467 22.512 37.568 22.384C37.5893 22.2347 37.5147 22.1387 37.344 22.096L36.192 16.624L36.736 10.256C36.7573 10.1493 36.7893 9.95733 36.832 9.68C36.8747 9.38133 36.9173 9.09333 36.96 8.816L36.864 8.784C36.9067 8.44267 37.0027 8.112 37.152 7.792C37.3013 7.45067 37.4827 7.09867 37.696 6.736C38.1653 6.032 38.4427 5.44533 38.528 4.976C38.5707 4.80533 38.6987 4.51733 38.912 4.112C39.1467 3.70667 39.5093 3.17333 40 2.512C40.192 2.23467 40.3627 2 40.512 1.808C40.6613 1.59467 40.7893 1.41333 40.896 1.264L41.696 0.655998C41.7813 0.677333 41.9093 0.698666 42.08 0.719999C42.272 0.741332 42.464 0.773332 42.656 0.815998C42.8693 0.837332 43.072 0.869333 43.264 0.911999C43.456 0.933332 43.6053 0.965332 43.712 1.008C43.7547 1.22133 43.5413 1.70133 43.072 2.448C42.56 3.23733 42.3253 3.68533 42.368 3.792C42.3253 3.92 42.2933 4.02667 42.272 4.112C42.2293 4.21867 42.1867 4.35733 42.144 4.528C42.1013 4.67733 42.048 4.848 41.984 5.04C41.8773 5.44533 41.792 5.76533 41.728 6C41.6853 6.23467 41.6533 6.39467 41.632 6.48L41.088 7.344C40.7467 7.87733 40.5547 8.47467 40.512 9.136L40.096 16.4C40.1173 16.5493 40.2133 17.2427 40.384 18.48C40.4693 19.0987 40.608 19.6853 40.8 20.24C40.992 20.7947 41.2267 21.328 41.504 21.84L41.152 22.288L41.664 24.208C41.6427 24.4853 41.8667 25.008 42.336 25.776C42.592 26.2027 42.7733 26.544 42.88 26.8L42.176 27.984L40.384 27.952L39.872 27.504ZM47.6605 22.288L51.3085 21.744L54.7965 20.72L55.6285 19.376L55.2765 18L54.4445 16.976C54.2098 16.8267 53.9645 16.688 53.7085 16.56C53.4738 16.4107 53.2285 16.304 52.9725 16.24C52.7378 16.1547 52.4925 16.1227 52.2365 16.144C52.0018 16.144 51.7672 16.2187 51.5325 16.368L50.7325 16.944L48.0765 15.696L47.1165 13.232L47.9485 9.104L49.4205 7.152C49.4845 7.30133 49.6125 7.35467 49.8045 7.312C49.9965 7.26933 50.1885 7.184 50.3805 7.056C50.5725 6.928 50.7325 6.77867 50.8605 6.608C50.9885 6.416 51.0205 6.24533 50.9565 6.096C51.3192 5.98933 51.7352 5.88267 52.2045 5.776C52.6738 5.648 53.0792 5.46667 53.4205 5.232L57.5485 4.368L58.2205 4.304L58.7965 4.976L58.2845 6.352L57.1005 6.672L55.5645 6.832L53.2285 8.016L52.1405 9.424C51.7992 9.744 51.6285 10.096 51.6285 10.48C51.6498 10.8427 51.7458 11.2373 51.9165 11.664C52.1512 12.1547 52.3218 12.4747 52.4285 12.624C52.5565 12.752 52.7165 12.8693 52.9085 12.976L54.7965 13.616C55.0098 13.7867 55.2018 13.9253 55.3725 14.032C55.5645 14.1173 55.7778 14.1707 56.0125 14.192C56.2472 14.2133 56.5778 14.2347 57.0045 14.256C57.4525 14.2773 58.0178 14.3093 58.7005 14.352C58.8925 14.7147 59.1165 15.0347 59.3725 15.312C59.6285 15.568 59.8738 15.9093 60.1085 16.336L60.7485 17.776L59.7885 20.976L59.0205 21.808L57.4525 24.08H56.6525C56.3752 24.08 56.0338 24.0907 55.6285 24.112C55.2445 24.112 54.7858 24.112 54.2525 24.112C53.7192 24.112 53.2498 24.1653 52.8445 24.272C52.4392 24.3787 52.0765 24.496 51.7565 24.624C51.4365 24.7307 51.1592 24.8267 50.9245 24.912C50.6898 24.9973 50.4765 25.0293 50.2845 25.008L49.1325 24.656L47.2125 24.976L46.5405 23.6L46.7325 22.8L47.6605 22.288ZM65.0683 4.08C65.2389 4.03733 65.4309 3.99467 65.6443 3.952C65.8576 3.888 66.0816 3.824 66.3163 3.76C66.7429 3.67466 67.0416 3.6 67.2123 3.536C67.3829 3.45067 67.5749 3.39733 67.7883 3.376C68.0229 3.33333 68.2149 3.312 68.3643 3.312C68.5349 3.29067 68.7696 3.28 69.0683 3.28C69.0896 3.36533 69.1216 3.46133 69.1643 3.568C69.2283 3.65333 69.2603 3.74933 69.2603 3.856C69.4949 4.368 69.7189 4.656 69.9323 4.72C70.1456 4.784 70.3376 4.752 70.5083 4.624C70.6789 4.496 70.8176 4.336 70.9243 4.144C71.0523 3.952 71.1376 3.856 71.1803 3.856H73.8043L76.6203 5.808C76.7909 5.91467 76.9723 6.05333 77.1643 6.224C77.3563 6.39467 77.5696 6.59733 77.8043 6.832C78.2523 7.30133 78.5509 7.52533 78.7003 7.504L78.5083 9.04C78.5083 9.06133 78.5403 9.08267 78.6042 9.104C78.6683 9.12533 78.7323 9.18933 78.7963 9.296C78.8816 9.38133 78.9456 9.52 78.9883 9.712C79.0523 9.904 79.0629 10.1813 79.0203 10.544C78.9563 11.2907 78.9563 11.952 79.0203 12.528C79.0843 13.104 79.1163 13.5733 79.1163 13.936C79.1163 13.9573 78.8923 14.0747 78.4443 14.288C77.9963 14.4587 77.7723 14.7787 77.7723 15.248C77.6656 15.2267 77.3776 15.2373 76.9083 15.28C76.4603 15.3013 76.0016 15.4187 75.5323 15.632L74.1563 16.176H72.2043C71.7989 16.176 71.4469 16.2293 71.1483 16.336C70.8496 16.4213 70.6043 16.5173 70.4123 16.624C70.2203 16.7307 70.0709 16.8373 69.9643 16.944C69.8576 17.0293 69.6229 17.072 69.2603 17.072C69.3029 17.3067 69.3456 17.4667 69.3883 17.552C69.3243 17.744 69.2283 17.9893 69.1003 18.288C68.9936 18.5653 68.9403 18.7573 68.9403 18.864C68.9403 18.992 68.9403 19.1733 68.9403 19.408C68.9616 19.6427 68.9829 19.9413 69.0043 20.304C69.0256 20.688 68.9403 21.008 68.7483 21.264C68.5563 21.4987 68.4603 21.6907 68.4603 21.84C68.5243 22.1173 68.5776 22.4267 68.6203 22.768C68.6843 23.088 68.7483 23.408 68.8123 23.728L68.3323 24.656C68.2896 24.6773 68.2469 24.688 68.2043 24.688C68.1829 24.688 68.1509 24.6987 68.1083 24.72C67.6389 24.8693 67.2763 24.944 67.0203 24.944C66.9776 24.944 66.8923 24.944 66.7643 24.944C66.6576 24.9227 66.5296 24.9013 66.3802 24.88C66.2309 24.8587 66.0923 24.848 65.9643 24.848C65.8363 24.8267 65.7509 24.816 65.7083 24.816C65.6656 24.816 65.5696 24.8693 65.4203 24.976C65.2923 25.0827 65.1429 25.1787 64.9723 25.264L64.2043 24.944C64.1616 24.6027 64.1403 24.2187 64.1403 23.792C64.1616 23.3653 64.1509 23.0027 64.1083 22.704C64.1723 22.6187 64.2576 22.448 64.3643 22.192C64.4709 21.9147 64.5029 21.5413 64.4603 21.072C64.4176 20.5813 64.4283 20.1867 64.4923 19.888C64.5563 19.5893 64.5883 19.3547 64.5883 19.184C64.5883 19.12 64.5563 18.9493 64.4923 18.672C64.4496 18.3733 64.4389 18.1387 64.4603 17.968C64.4816 17.904 64.5349 17.8187 64.6203 17.712C64.7056 17.6053 64.7483 17.4667 64.7483 17.296C64.7269 16.6133 64.7163 16.0693 64.7163 15.664C64.7163 15.2587 64.6736 14.8427 64.5883 14.416C64.5669 14.3307 64.5776 14.2453 64.6203 14.16C64.6843 14.0533 64.7163 13.9147 64.7163 13.744C64.7163 13.5733 64.7803 13.1787 64.9083 12.56C65.0576 11.92 65.0683 11.0347 64.9403 9.904C64.8336 8.79467 64.7483 7.93067 64.6843 7.312C64.6203 6.69333 64.5989 6.32 64.6203 6.192C64.6629 5.95733 64.6736 5.776 64.6523 5.648C64.6309 5.52 64.6203 5.328 64.6203 5.072L65.0683 4.08ZM73.8043 14.096C73.8043 13.9893 74.0176 13.7227 74.4443 13.296C74.8923 12.8907 75.1163 12.6133 75.1163 12.464L74.7003 9.552L74.4443 8.56L71.6923 5.488H70.4763L69.8363 5.36L69.5803 5.488C69.5376 5.616 69.5163 6.352 69.5163 7.696C69.5376 9.104 69.5376 9.904 69.5163 10.096C69.0896 10.3307 68.9616 10.8107 69.1323 11.536C69.3243 12.24 69.3136 12.7947 69.1003 13.2C69.0363 13.264 69.0043 13.36 69.0043 13.488C69.0043 13.7867 69.0043 14.0107 69.0043 14.16C69.0256 14.288 69.0149 14.4907 68.9723 14.768C68.9723 14.7893 68.9829 14.8533 69.0043 14.96C69.0469 15.0667 69.0789 15.2267 69.1003 15.44L70.3483 15.088C70.3483 15.3013 70.7643 15.1947 71.5963 14.768C72.0229 14.5333 72.3536 14.3627 72.5883 14.256C72.8229 14.1493 72.9616 14.096 73.0043 14.096H73.8043ZM85.687 27.952L83.895 27.984L83.191 26.8C83.2977 26.544 83.479 26.2027 83.735 25.776C84.2043 25.008 84.4283 24.4853 84.407 24.208L84.919 22.288L84.567 21.84C84.8443 21.328 85.079 20.7947 85.271 20.24C85.463 19.6853 85.6017 19.0987 85.687 18.48C85.8577 17.2427 85.9537 16.5493 85.975 16.4L85.559 9.136C85.5163 8.47467 85.3243 7.87733 84.983 7.344L84.439 6.48C84.4177 6.39467 84.375 6.23467 84.311 6C84.2683 5.76533 84.1937 5.44533 84.087 5.04C84.0017 4.848 83.9377 4.67733 83.895 4.528C83.8737 4.35733 83.8417 4.21867 83.799 4.112C83.7777 4.02667 83.7457 3.92 83.703 3.792C83.7457 3.68533 83.511 3.23733 82.999 2.448C82.5297 1.70133 82.3163 1.22133 82.359 1.008C82.4443 0.965332 82.583 0.933332 82.775 0.911999C82.967 0.869333 83.1697 0.837332 83.383 0.815998C83.5963 0.773332 83.7883 0.741332 83.959 0.719999C84.151 0.698666 84.2897 0.677333 84.375 0.655998L85.175 1.264C85.2817 1.41333 85.4097 1.59467 85.559 1.808C85.7083 2 85.879 2.23467 86.071 2.512C86.5617 3.17333 86.9137 3.70667 87.127 4.112C87.3617 4.51733 87.5003 4.80533 87.543 4.976C87.6283 5.44533 87.9057 6.032 88.375 6.736C88.5883 7.09867 88.7697 7.45067 88.919 7.792C89.0683 8.112 89.1643 8.44267 89.207 8.784L89.111 8.816C89.1537 9.09333 89.1963 9.38133 89.239 9.68C89.2817 9.95733 89.3137 10.1493 89.335 10.256L89.879 16.624L88.727 22.096C88.5563 22.1387 88.4817 22.2347 88.503 22.384C88.5243 22.512 88.6203 22.5653 88.791 22.544C88.6203 22.9067 88.3857 23.312 88.087 23.76C87.8097 24.208 87.4897 24.7093 87.127 25.264C86.5297 26.1173 86.2203 26.864 86.199 27.504L85.687 27.952Z" fill="white"/>
</svg>
